<svg width="258" height="181" viewBox="0 0 258 181" fill="none" xmlns="http://www.w3.org/2000/svg">
<g clip-path="url(#clip0)">
<path d="M177.375 75.7604C185.584 56.3043 193.5 37.4379 201.416 18.5714C205.52 7.36948 216.075 -0.000224173 227.802 0.294564C244.22 -0.295012 257.414 12.3809 258 28.5942C258 33.0161 257.12 37.4379 255.361 41.5649C245.98 64.5584 236.305 87.2571 226.63 109.956C219.3 127.348 211.97 144.446 204.934 161.839C200.536 173.63 189.102 181.295 176.495 180.705C164.768 180.705 154.507 173.335 149.816 161.249C142.193 142.972 134.57 124.99 126.948 106.713C126.655 106.124 126.361 105.534 125.775 104.355C125.189 105.534 124.602 106.418 124.309 107.303C116.686 125.58 109.064 144.151 101.148 162.428C94.9909 177.462 78.2796 184.537 63.3273 178.347C59.2228 176.578 55.7046 174.22 52.7728 170.977C44.5637 162.428 42.5114 149.752 47.4955 139.14C58.05 114.083 68.6046 89.0258 79.1591 63.9688C85.6091 48.6398 91.7659 33.3108 98.5091 17.9819C104.959 2.94766 122.257 -4.42205 137.209 2.06329C141.607 3.83202 145.418 6.77991 148.35 10.3174C150.695 13.2652 152.455 16.2131 153.627 19.7506C161.25 37.4379 168.58 55.1252 176.202 72.8125C176.495 73.9916 177.082 74.5812 177.375 75.7604Z" fill="#053F7C"/>
<path d="M33.4228 119.684L22.575 94.0375C16.125 79.0033 9.67504 63.6743 3.22504 48.6401C-5.8636 27.1205 5.27731 4.71663 27.5591 0.589599C51.6 -3.83222 72.4159 19.1613 65.3796 42.4495C62.1546 53.3567 57.1705 63.6743 53.0659 73.9919C47.2023 88.4365 41.0455 102.881 34.8887 117.326C34.3023 117.915 34.0091 118.505 33.4228 119.684Z" fill="#FE5858"/>
</g>
<defs>
<clipPath id="clip0">
<rect width="258" height="181" fill="white"/>
</clipPath>
</defs>
</svg>
